<svg width="1200" height="300" viewBox="0 0 1200 300" fill="none" xmlns="http://www.w3.org/2000/svg">
  <!-- 远处山丘的渐变色 -->
  <defs>
    <linearGradient id="hillGradient1" x1="0%" y1="0%" x2="0%" y2="100%">
      <stop offset="0%" stop-color="#8db48e" stop-opacity="0.7" />
      <stop offset="100%" stop-color="#5c9b72" stop-opacity="0.8" />
    </linearGradient>
    <linearGradient id="hillGradient2" x1="0%" y1="0%" x2="0%" y2="100%">
      <stop offset="0%" stop-color="#6ba17d" stop-opacity="0.7" />
      <stop offset="100%" stop-color="#4d8663" stop-opacity="0.8" />
    </linearGradient>
  </defs>
  
  <!-- 远处的山丘群 -->
  <path d="M0 150 Q 100 50, 200 100 Q 300 150, 400 80 Q 500 30, 600 100 Q 700 170, 800 120 Q 900 70, 1000 110 Q 1100 150, 1200 100 L 1200 300 L 0 300 Z" fill="url(#hillGradient1)" />
  
  <!-- 稍近的山丘群 -->
  <path d="M0 180 Q 150 100, 300 150 Q 450 200, 600 130 Q 750 60, 900 140 Q 1050 220, 1200 150 L 1200 300 L 0 300 Z" fill="url(#hillGradient2)" />
</svg> 