<svg width="1200" height="600" viewBox="0 0 1200 600" fill="none" xmlns="http://www.w3.org/2000/svg">
  <g opacity="0.6">
    <!-- 远处的云朵 -->
    <path d="M150 150 C200 130, 250 120, 300 140 C320 100, 380 110, 400 130 C450 110, 500 120, 520 150 C500 160, 450 170, 400 160 C380 180, 320 180, 300 160 C250 170, 180 170, 150 150 Z" fill="#FFFFFF" />
    
    <path d="M650 180 C680 160, 720 150, 750 165 C770 140, 800 145, 820 165 C850 155, 880 160, 900 180 C880 190, 850 195, 820 185 C800 200, 770 200, 750 185 C720 195, 670 190, 650 180 Z" fill="#FFFFFF" />
    
    <path d="M950 120 C980 100, 1020 90, 1050 105 C1070 80, 1100 85, 1120 105 C1150 95, 1180 100, 1200 120 C1180 130, 1150 135, 1120 125 C1100 140, 1070 140, 1050 125 C1020 135, 970 130, 950 120 Z" fill="#FFFFFF" />
    
    <!-- 中间的云朵 -->
    <path d="M50 250 C100 230, 150 220, 200 240 C220 200, 280 210, 300 230 C350 210, 400 220, 420 250 C400 260, 350 270, 300 260 C280 280, 220 280, 200 260 C150 270, 80 270, 50 250 Z" fill="#FFFFFF" />
    
    <path d="M550 220 C600 200, 650 190, 700 210 C720 170, 780 180, 800 200 C850 180, 900 190, 920 220 C900 230, 850 240, 800 230 C780 250, 720 250, 700 230 C650 240, 580 240, 550 220 Z" fill="#FFFFFF" />
    
    <!-- 前景的云朵 -->
    <path d="M250 320 C300 300, 350 290, 400 310 C420 270, 480 280, 500 300 C550 280, 600 290, 620 320 C600 330, 550 340, 500 330 C480 350, 420 350, 400 330 C350 340, 280 340, 250 320 Z" fill="#FFFFFF" />
    
    <path d="M750 350 C800 330, 850 320, 900 340 C920 300, 980 310, 1000 330 C1050 310, 1100 320, 1120 350 C1100 360, 1050 370, 1000 360 C980 380, 920 380, 900 360 C850 370, 780 370, 750 350 Z" fill="#FFFFFF" />
  </g>
</svg> 