<svg width="1200" height="200" viewBox="0 0 1200 200" fill="none" xmlns="http://www.w3.org/2000/svg">
  <!-- 草地渐变 -->
  <defs>
    <linearGradient id="grassGradient" x1="0%" y1="0%" x2="0%" y2="100%">
      <stop offset="0%" stop-color="#8db48e" stop-opacity="0.9" />
      <stop offset="100%" stop-color="#5c9b72" stop-opacity="1" />
    </linearGradient>
  </defs>
  
  <!-- 草地基础 -->
  <path d="M0 80 Q 150 20, 300 60 Q 450 100, 600 50 Q 750 0, 900 40 Q 1050 80, 1200 40 L 1200 200 L 0 200 Z" fill="url(#grassGradient)" />
  
  <!-- 草丛细节 -->
  <g opacity="0.6">
    <!-- 一些小草团 -->
    <path d="M100 80 C 95 65, 90 55, 85 70 C 80 50, 75 45, 70 65 C 65 50, 60 35, 55 60 C 50 70, 65 75, 80 70 C 85 75, 95 80, 100 80 Z" fill="#5c9b72"/>
    <path d="M300 60 C 295 45, 290 35, 285 50 C 280 30, 275 25, 270 45 C 265 30, 260 15, 255 40 C 250 50, 265 55, 280 50 C 285 55, 295 60, 300 60 Z" fill="#5c9b72"/>
    <path d="M500 50 C 495 35, 490 25, 485 40 C 480 20, 475 15, 470 35 C 465 20, 460 5, 455 30 C 450 40, 465 45, 480 40 C 485 45, 495 50, 500 50 Z" fill="#5c9b72"/>
    <path d="M700 60 C 695 45, 690 35, 685 50 C 680 30, 675 25, 670 45 C 665 30, 660 15, 655 40 C 650 50, 665 55, 680 50 C 685 55, 695 60, 700 60 Z" fill="#5c9b72"/>
    <path d="M900 40 C 895 25, 890 15, 885 30 C 880 10, 875 5, 870 25 C 865 10, 860 -5, 855 20 C 850 30, 865 35, 880 30 C 885 35, 895 40, 900 40 Z" fill="#5c9b72"/>
    <path d="M1100 60 C 1095 45, 1090 35, 1085 50 C 1080 30, 1075 25, 1070 45 C 1065 30, 1060 15, 1055 40 C 1050 50, 1065 55, 1080 50 C 1085 55, 1095 60, 1100 60 Z" fill="#5c9b72"/>
  </g>
</svg> 