<svg width="100" height="100" viewBox="0 0 100 100" xmlns="http://www.w3.org/2000/svg">
  <!-- Background Circle -->
  <circle cx="50" cy="50" r="48" fill="#8db48e" stroke="#333" stroke-width="2" />
  
  <!-- Totoro Face -->
  <ellipse cx="50" cy="55" rx="35" ry="30" fill="#93867F" />
  <ellipse cx="50" cy="62" rx="25" ry="20" fill="#C5C9C4" />
  
  <!-- Eyes -->
  <circle cx="38" cy="46" r="5" fill="white" />
  <circle cx="62" cy="46" r="5" fill="white" />
  <circle cx="38" cy="46" r="2.5" fill="black" />
  <circle cx="62" cy="46" r="2.5" fill="black" />
  
  <!-- Nose -->
  <ellipse cx="50" cy="54" rx="4" ry="3" fill="#333" />
  
  <!-- Whiskers -->
  <line x1="35" y1="54" x2="20" y2="52" stroke="#333" stroke-width="1.5" />
  <line x1="35" y1="58" x2="20" y2="62" stroke="#333" stroke-width="1.5" />
  <line x1="65" y1="54" x2="80" y2="52" stroke="#333" stroke-width="1.5" />
  <line x1="65" y1="58" x2="80" y2="62" stroke="#333" stroke-width="1.5" />
  
  <!-- Ears -->
  <path d="M35,32 Q40,22 45,32" fill="#93867F" stroke="#333" stroke-width="1" />
  <path d="M65,32 Q60,22 55,32" fill="#93867F" stroke="#333" stroke-width="1" />
  
  <!-- Belly pattern -->
  <ellipse cx="50" cy="70" rx="3" ry="3" fill="#93867F" />
  <ellipse cx="42" cy="65" rx="3" ry="3" fill="#93867F" />
  <ellipse cx="58" cy="65" rx="3" ry="3" fill="#93867F" />
</svg> 