<svg width="120" height="120" viewBox="0 0 120 120" xmlns="http://www.w3.org/2000/svg">
  <style>
    @keyframes handWave {
      0% { transform: rotate(0deg); transform-origin: 25px 60px; }
      25% { transform: rotate(-15deg); transform-origin: 25px 60px; }
      50% { transform: rotate(0deg); transform-origin: 25px 60px; }
      75% { transform: rotate(15deg); transform-origin: 25px 60px; }
      100% { transform: rotate(0deg); transform-origin: 25px 60px; }
    }
    @keyframes handWave2 {
      0% { transform: rotate(0deg); transform-origin: 95px 60px; }
      25% { transform: rotate(15deg); transform-origin: 95px 60px; }
      50% { transform: rotate(0deg); transform-origin: 95px 60px; }
      75% { transform: rotate(-15deg); transform-origin: 95px 60px; }
      100% { transform: rotate(0deg); transform-origin: 95px 60px; }
    }
    .left-arm {
      animation: handWave 1.5s ease-in-out infinite;
    }
    .right-arm {
      animation: handWave2 1.5s ease-in-out infinite;
    }
    @keyframes eyeBlink {
      0% { transform: scaleY(1); }
      95% { transform: scaleY(1); }
      97.5% { transform: scaleY(0.1); }
      100% { transform: scaleY(1); }
    }
    .eye {
      animation: eyeBlink 3s infinite;
    }
  </style>
  
  <!-- Totoro Body -->
  <ellipse cx="60" cy="65" rx="40" ry="45" fill="#93867F" />
  <ellipse cx="60" cy="75" rx="30" ry="30" fill="#C5C9C4" />
  
  <!-- Arms -->
  <g class="left-arm">
    <path d="M30,60 Q25,50 15,55" stroke="#333" stroke-width="3" stroke-linecap="round" fill="none" />
  </g>
  <g class="right-arm">
    <path d="M90,60 Q95,50 105,55" stroke="#333" stroke-width="3" stroke-linecap="round" fill="none" />
  </g>
  
  <!-- Eyes -->
  <g class="eye">
    <circle cx="45" cy="50" r="6" fill="white" />
    <circle cx="45" cy="50" r="3" fill="black" />
  </g>
  <g class="eye">
    <circle cx="75" cy="50" r="6" fill="white" />
    <circle cx="75" cy="50" r="3" fill="black" />
  </g>
  
  <!-- Nose -->
  <ellipse cx="60" cy="60" rx="5" ry="4" fill="#333" />
  
  <!-- Whiskers -->
  <line x1="40" y1="62" x2="25" y2="60" stroke="#333" stroke-width="2" />
  <line x1="40" y1="66" x2="25" y2="70" stroke="#333" stroke-width="2" />
  <line x1="80" y1="62" x2="95" y2="60" stroke="#333" stroke-width="2" />
  <line x1="80" y1="66" x2="95" y2="70" stroke="#333" stroke-width="2" />
  
  <!-- Ears -->
  <path d="M40,35 Q45,25 50,35" fill="#93867F" stroke="#333" strokeWidth="1" />
  <path d="M80,35 Q75,25 70,35" fill="#93867F" stroke="#333" strokeWidth="1" />
  
  <!-- Belly pattern -->
  <ellipse cx="60" cy="85" rx="4" ry="4" fill="#93867F" />
  <ellipse cx="50" cy="80" rx="4" ry="4" fill="#93867F" />
  <ellipse cx="70" cy="80" rx="4" ry="4" fill="#93867F" />
</svg> 